<svg xmlns="http://www.w3.org/2000/svg" xmlns:svg="http://www.w3.org/2000/svg" id="svg8" width="24" height="24" fill="#000" version="1.1" viewBox="0 0 24 24"><path id="circle6-3" d="M 12.089844 3.1015625 A 6.0193458 5.1277094 0 0 0 6.0703125 8.2285156 A 6.0193458 5.1277094 0 0 0 7.4941406 11.533203 A 4.5177398 7.4051328 0 0 0 7.4746094 12.005859 A 4.5177398 7.4051328 0 0 0 11.992188 19.410156 A 4.5177398 7.4051328 0 0 0 16.511719 12.005859 A 4.5177398 7.4051328 0 0 0 16.505859 11.701172 A 6.0193458 5.1277094 0 0 0 18.109375 8.2285156 A 6.0193458 5.1277094 0 0 0 12.089844 3.1015625 z" style="fill:#69f;stroke-width:.91657"/><path id="path2" fill="none" d="M0 0h24v24H0V0z"/><path id="path4" d="M12 2C8.13 2 5 5.13 5 9c0 5.25 7 13 7 13s7-7.75 7-13c0-3.87-3.13-7-7-7zM7 9c0-2.76 2.24-5 5-5s5 2.24 5 5c0 2.88-2.88 7.19-5 9.88C9.92 16.21 7 11.85 7 9z" style="fill:#fff;fill-opacity:1;stroke:none;stroke-opacity:1"/><circle id="circle6" cx="12" cy="9" r="2.5" style="fill:#fff"/><ellipse style="opacity:0;fill:#69f;fill-opacity:1;stroke:#000;stroke-width:0;stroke-linejoin:bevel;stroke-dashoffset:4.0252;stroke-opacity:1" id="path1429" cx="15.871" cy="11.148" rx="10.268" ry="6.969"/></svg>